<svg width="88" height="16" viewBox="0 0 88 16" fill="none" xmlns="http://www.w3.org/2000/svg">
<path d="M14.6316 6.1195C14.5456 5.8675 14.3183 5.6895 14.053 5.66883L10.2523 5.36683L8.60765 1.72616C8.50031 1.48683 8.26231 1.3335 8.00031 1.3335C7.73831 1.3335 7.50031 1.48683 7.39298 1.7255L5.74831 5.36683L1.94764 5.66883C1.68698 5.6895 1.46231 5.86083 1.37364 6.10683C1.28498 6.35283 1.34764 6.62816 1.53498 6.81083L4.34364 9.54883L3.35031 13.8502C3.28898 14.1162 3.39631 14.3928 3.62098 14.5482C3.73565 14.6268 3.86764 14.6668 4.00031 14.6668C4.12898 14.6668 4.25831 14.6295 4.37031 14.5548L8.00031 12.1348L11.6303 14.5548C11.8623 14.7095 12.167 14.7035 12.3936 14.5388C12.619 14.3742 12.7183 14.0855 12.6416 13.8175L11.4223 9.55083L14.4463 6.8295C14.6443 6.65083 14.717 6.37216 14.6316 6.1195Z" fill="#FFBA08"/>
<path d="M32.6316 6.1195C32.5456 5.8675 32.3183 5.6895 32.053 5.66883L28.2523 5.36683L26.6076 1.72616C26.5003 1.48683 26.2623 1.3335 26.0003 1.3335C25.7383 1.3335 25.5003 1.48683 25.393 1.7255L23.7483 5.36683L19.9476 5.66883C19.687 5.6895 19.4623 5.86083 19.3736 6.10683C19.285 6.35283 19.3476 6.62816 19.535 6.81083L22.3436 9.54883L21.3503 13.8502C21.289 14.1162 21.3963 14.3928 21.621 14.5482C21.7356 14.6268 21.8676 14.6668 22.0003 14.6668C22.129 14.6668 22.2583 14.6295 22.3703 14.5548L26.0003 12.1348L29.6303 14.5548C29.8623 14.7095 30.167 14.7035 30.3936 14.5388C30.619 14.3742 30.7183 14.0855 30.6416 13.8175L29.4223 9.55083L32.4463 6.8295C32.6443 6.65083 32.717 6.37216 32.6316 6.1195Z" fill="#FFBA08"/>
<path d="M50.6316 6.1195C50.5456 5.8675 50.3183 5.6895 50.053 5.66883L46.2523 5.36683L44.6076 1.72616C44.5003 1.48683 44.2623 1.3335 44.0003 1.3335C43.7383 1.3335 43.5003 1.48683 43.393 1.7255L41.7483 5.36683L37.9476 5.66883C37.687 5.6895 37.4623 5.86083 37.3736 6.10683C37.285 6.35283 37.3476 6.62816 37.535 6.81083L40.3436 9.54883L39.3503 13.8502C39.289 14.1162 39.3963 14.3928 39.621 14.5482C39.7356 14.6268 39.8676 14.6668 40.0003 14.6668C40.129 14.6668 40.2583 14.6295 40.3703 14.5548L44.0003 12.1348L47.6303 14.5548C47.8623 14.7095 48.167 14.7035 48.3936 14.5388C48.619 14.3742 48.7183 14.0855 48.6416 13.8175L47.4223 9.55083L50.4463 6.8295C50.6443 6.65083 50.717 6.37216 50.6316 6.1195Z" fill="#FFBA08"/>
<path d="M68.6316 6.1195C68.5456 5.8675 68.3183 5.6895 68.053 5.66883L64.2523 5.36683L62.6076 1.72616C62.5003 1.48683 62.2623 1.3335 62.0003 1.3335C61.7383 1.3335 61.5003 1.48683 61.393 1.7255L59.7483 5.36683L55.9476 5.66883C55.687 5.6895 55.4623 5.86083 55.3736 6.10683C55.285 6.35283 55.3476 6.62816 55.535 6.81083L58.3436 9.54883L57.3503 13.8502C57.289 14.1162 57.3963 14.3928 57.621 14.5482C57.7356 14.6268 57.8676 14.6668 58.0003 14.6668C58.129 14.6668 58.2583 14.6295 58.3703 14.5548L62.0003 12.1348L65.6303 14.5548C65.8623 14.7095 66.167 14.7035 66.3936 14.5388C66.619 14.3742 66.7183 14.0855 66.6416 13.8175L65.4223 9.55083L68.4463 6.8295C68.6443 6.65083 68.717 6.37216 68.6316 6.1195Z" fill="#FFBA08"/>
<path d="M86.6316 6.1195C86.5456 5.8675 86.3183 5.6895 86.053 5.66883L82.2523 5.36683L80.6076 1.72616C80.5003 1.48683 80.2623 1.3335 80.0003 1.3335C79.7383 1.3335 79.5003 1.48683 79.393 1.7255L77.7483 5.36683L73.9476 5.66883C73.687 5.6895 73.4623 5.86083 73.3736 6.10683C73.285 6.35283 73.3476 6.62816 73.535 6.81083L76.3436 9.54883L75.3503 13.8502C75.289 14.1162 75.3963 14.3928 75.621 14.5482C75.7356 14.6268 75.8676 14.6668 76.0003 14.6668C76.129 14.6668 76.2583 14.6295 76.3703 14.5548L80.0003 12.1348L83.6303 14.5548C83.8623 14.7095 84.167 14.7035 84.3936 14.5388C84.619 14.3742 84.7183 14.0855 84.6416 13.8175L83.4223 9.55083L86.4463 6.8295C86.6443 6.65083 86.717 6.37216 86.6316 6.1195Z" fill="#FFBA08"/>
</svg>
