<svg width="20" height="20" viewBox="0 0 20 20" fill="none" xmlns="http://www.w3.org/2000/svg">
<path d="M16.667 3.3335H3.33366C2.41449 3.3335 1.66699 4.081 1.66699 5.00016V15.0002C1.66699 15.9193 2.41449 16.6668 3.33366 16.6668H16.667C17.5862 16.6668 18.3337 15.9193 18.3337 15.0002V5.00016C18.3337 4.081 17.5862 3.3335 16.667 3.3335ZM16.667 5.00016V5.426L10.0003 10.6118L3.33366 5.42683V5.00016H16.667ZM3.33366 15.0002V7.53683L9.48866 12.3243C9.63866 12.4418 9.81949 12.5002 10.0003 12.5002C10.1812 12.5002 10.362 12.4418 10.512 12.3243L16.667 7.53683L16.6687 15.0002H3.33366Z" fill="#B4B7C9"/>
</svg>
