<svg width="60" height="60" viewBox="0 0 60 60" fill="none" xmlns="http://www.w3.org/2000/svg">
<rect width="60" height="60" rx="8" fill="#6366F1" fill-opacity="0.08"/>
<g clip-path="url(#clip0_4632_11138)">
<path d="M38.1484 30.0552C36.3391 30.0552 34.8672 31.5272 34.8672 33.3365C34.8672 35.1458 36.3391 36.6177 38.1484 36.6177H42.7968C42.8154 36.6177 42.8335 36.6159 42.8518 36.6149C42.8699 36.6158 42.8878 36.6177 42.9062 36.6177C43.5103 36.6177 43.9999 36.128 43.9999 35.5239V26.938C43.9999 25.4819 43.2843 24.1905 42.1868 23.3948L38.4659 17.2906C38.3142 17.0417 38.0693 16.8636 37.7857 16.796C37.5021 16.7283 37.2033 16.7767 36.9555 16.9304L34.2115 18.632L32.974 16.5378C32.8252 16.2861 32.5818 16.1044 32.2982 16.0333C32.0145 15.9622 31.7141 16.0077 31.4643 16.1596L20.9278 22.563H19.2812C18.6873 22.563 18.2024 22.0871 18.1878 21.4966C18.2024 20.9061 18.6873 20.4302 19.2812 20.4302H21.3047C21.9088 20.4302 22.3984 19.9405 22.3984 19.3365C22.3984 18.7324 21.9088 18.2427 21.3047 18.2427H19.2812C17.7337 18.2427 16.4331 19.3197 16.0891 20.7635C16.0319 20.8962 16 21.0422 16 21.1958V21.4693V21.524V39.6255C16 42.0379 17.9626 44.0005 20.375 44.0005H39.625C41.5111 44.0005 43.1793 42.7989 43.7758 41.0107C43.967 40.4376 43.6574 39.8181 43.0844 39.627C42.5114 39.4359 41.8919 39.7454 41.7007 40.3184C41.4025 41.2123 40.5684 41.813 39.625 41.813H20.375C19.1688 41.813 18.1875 40.8317 18.1875 39.6255V24.5629C18.5298 24.6843 18.8979 24.7505 19.2812 24.7505H39.625C40.8311 24.7505 41.8125 25.7318 41.8125 26.938V30.0552H38.1484ZM41.8125 34.4302H38.1484C37.5453 34.4302 37.0546 33.9396 37.0546 33.3364C37.0546 32.7333 37.5453 32.2427 38.1484 32.2427H41.8125V34.4302ZM25.1398 22.5631L31.6541 18.6041L32.8188 20.5751C32.8411 20.6289 32.8668 20.682 32.8986 20.7332C32.9224 20.7716 32.9487 20.8073 32.9762 20.8416L33.9934 22.5631H25.1398ZM36.5343 22.563L35.3246 20.5157L37.1717 19.3703L39.1179 22.563H36.5343Z" fill="url(#paint0_linear_4632_11138)"/>
</g>
<defs>
<linearGradient id="paint0_linear_4632_11138" x1="16" y1="30.0675" x2="43.9999" y2="30.0675" gradientUnits="userSpaceOnUse">
<stop stop-color="#6366F1"/>
<stop offset="0.5" stop-color="#8B5CF6"/>
<stop offset="1" stop-color="#D946EF"/>
</linearGradient>
<clipPath id="clip0_4632_11138">
<rect width="28" height="28" fill="white" transform="translate(16 16)"/>
</clipPath>
</defs>
</svg>
