<svg width="64" height="64" viewBox="0 0 64 64" fill="none" xmlns="http://www.w3.org/2000/svg">
<g filter="url(#filter0_d_4633_10153)">
<rect x="10" y="2" width="44" height="44" rx="6" fill="#6366F1"/>
<path d="M42 16.0291C39.3099 15.5937 37.3119 16.1082 36.0058 17.5728C34.6998 19.0373 34.0468 21.1946 34.0468 24.0445V32.1194H42V24.0445H37.9064C37.692 22.6196 37.8869 21.4618 38.4912 20.5712C39.115 19.6806 40.1287 19.2946 41.5322 19.4134L42 16.0291ZM29.9532 16.0291C27.2632 15.5937 25.2651 16.1082 23.9591 17.5728C22.653 19.0373 22 21.1946 22 24.0445V32.1194H29.9532V24.0445H25.8596C25.6452 22.6196 25.8402 21.4618 26.4444 20.5712C27.0682 19.6806 28.0819 19.2946 29.4854 19.4134L29.9532 16.0291Z" fill="white"/>
</g>
<defs>
<filter id="filter0_d_4633_10153" x="0" y="0" width="64" height="64" filterUnits="userSpaceOnUse" color-interpolation-filters="sRGB">
<feFlood flood-opacity="0" result="BackgroundImageFix"/>
<feColorMatrix in="SourceAlpha" type="matrix" values="0 0 0 0 0 0 0 0 0 0 0 0 0 0 0 0 0 0 127 0" result="hardAlpha"/>
<feMorphology radius="8" operator="erode" in="SourceAlpha" result="effect1_dropShadow_4633_10153"/>
<feOffset dy="8"/>
<feGaussianBlur stdDeviation="9"/>
<feColorMatrix type="matrix" values="0 0 0 0 0.388235 0 0 0 0 0.4 0 0 0 0 0.945098 0 0 0 0.9 0"/>
<feBlend mode="normal" in2="BackgroundImageFix" result="effect1_dropShadow_4633_10153"/>
<feBlend mode="normal" in="SourceGraphic" in2="effect1_dropShadow_4633_10153" result="shape"/>
</filter>
</defs>
</svg>
